<?xml version="1.0" standalone="no"?><svg xmlns:xlink="http://www.w3.org/1999/xlink" xmlns="http://www.w3.org/2000/svg" viewBox="0 0 1000 642.8584864844529" preserveAspectRatio="xMaxYMax slice"><g transform="scale(0.9405391170218769)"><rect x="0" y="0" width="1063.2222222222222" height="683.5" fill="#f6f6fe"/><circle cx="37.975" cy="37.975" r="7.595" fill="#183FE1"/><circle cx="113.91499999999999" cy="37.975" r="7.595" fill="#888bec"/><circle cx="189.865" cy="37.975" r="7.595" fill="#888bec"/><circle cx="265.805" cy="37.975" r="7.595" fill="#888bec"/><circle cx="341.75500000000005" cy="37.975" r="7.595" fill="#183FE1"/><circle cx="417.69500000000005" cy="37.975" r="7.595" fill="#183FE1"/><circle cx="493.63500000000005" cy="37.975" r="7.595" fill="#888bec"/><circle cx="569.585" cy="37.975" r="7.595" fill="#888bec"/><circle cx="645.525" cy="37.975" r="7.595" fill="#888bec"/><circle cx="721.475" cy="37.975" r="7.595" fill="#183FE1"/><circle cx="797.4150000000001" cy="37.975" r="7.595" fill="#888bec"/><circle cx="873.365" cy="37.975" r="7.595" fill="#183FE1"/><circle cx="949.3050000000001" cy="37.975" r="7.595" fill="#183FE1"/><circle cx="1025.2549999999999" cy="37.975" r="7.595" fill="#888bec"/><circle cx="37.975" cy="113.91499999999999" r="7.595" fill="#183FE1"/><circle cx="113.915" cy="113.915" r="8.985" fill="#888bec"/><circle cx="189.86" cy="113.91000000000001" r="10.37" fill="#183FE1"/><circle cx="265.81" cy="113.92" r="11.76" fill="#183FE1"/><circle cx="341.75" cy="113.92" r="13.15" fill="#183FE1"/><circle cx="417.70000000000005" cy="113.91999999999999" r="14.54" fill="#888bec"/><circle cx="493.635" cy="113.91499999999999" r="15.695" fill="#888bec"/><circle cx="569.585" cy="113.91499999999999" r="15.695" fill="#888bec"/><circle cx="645.5250000000001" cy="113.91499999999999" r="15.695" fill="#888bec"/><circle cx="721.4699999999999" cy="113.91999999999999" r="14.54" fill="#888bec"/><circle cx="797.42" cy="113.92" r="13.15" fill="#183FE1"/><circle cx="873.36" cy="113.92" r="11.76" fill="#888bec"/><circle cx="949.3" cy="113.91000000000001" r="10.37" fill="#888bec"/><circle cx="1025.2549999999999" cy="113.915" r="8.985" fill="#888bec"/><circle cx="37.975" cy="189.865" r="7.595" fill="#888bec"/><circle cx="113.91000000000001" cy="189.86" r="10.37" fill="#888bec"/><circle cx="189.86" cy="189.86" r="13.15" fill="#183FE1"/><circle cx="265.805" cy="189.85500000000002" r="15.925" fill="#183FE1"/><circle cx="341.755" cy="189.865" r="18.705" fill="#888bec"/><circle cx="417.69" cy="189.85999999999999" r="21.48" fill="#183FE1"/><circle cx="493.635" cy="189.865" r="23.795" fill="#183FE1"/><circle cx="569.5849999999999" cy="189.865" r="23.795" fill="#888bec"/><circle cx="645.525" cy="189.865" r="23.795" fill="#888bec"/><circle cx="721.47" cy="189.85999999999999" r="21.48" fill="#183FE1"/><circle cx="797.4150000000001" cy="189.865" r="18.705" fill="#183FE1"/><circle cx="873.3549999999999" cy="189.85500000000002" r="15.925" fill="#183FE1"/><circle cx="949.31" cy="189.86" r="13.15" fill="#888bec"/><circle cx="1025.25" cy="189.86" r="10.37" fill="#183FE1"/><circle cx="37.975" cy="265.805" r="7.595" fill="#888bec"/><circle cx="113.92" cy="265.81" r="11.76" fill="#183FE1"/><circle cx="189.85500000000002" cy="265.805" r="15.925" fill="#888bec"/><circle cx="265.805" cy="265.805" r="20.095" fill="#183FE1"/><circle cx="341.75" cy="265.81" r="24.26" fill="#888bec"/><circle cx="417.695" cy="265.805" r="28.425" fill="#888bec"/><circle cx="493.635" cy="265.805" r="31.895" fill="#183FE1"/><circle cx="569.585" cy="265.805" r="31.895" fill="#183FE1"/><circle cx="645.525" cy="265.805" r="31.895" fill="#888bec"/><circle cx="721.4749999999999" cy="265.805" r="28.425" fill="#888bec"/><circle cx="797.42" cy="265.81" r="24.26" fill="#888bec"/><circle cx="873.365" cy="265.805" r="20.095" fill="#183FE1"/><circle cx="949.305" cy="265.805" r="15.925" fill="#183FE1"/><circle cx="1025.25" cy="265.81" r="11.76" fill="#183FE1"/><circle cx="37.975" cy="341.75500000000005" r="7.595" fill="#888bec"/><circle cx="113.91" cy="341.75" r="12.8" fill="#888bec"/><circle cx="189.85999999999999" cy="341.75" r="18.01" fill="#183FE1"/><circle cx="265.805" cy="341.74499999999995" r="23.215" fill="#183FE1"/><circle cx="341.755" cy="341.755" r="28.425" fill="#183FE1"/><circle cx="417.695" cy="341.755" r="33.635" fill="#183FE1"/><circle cx="493.64" cy="341.75" r="37.97" fill="#183FE1"/><circle cx="569.58" cy="341.75" r="37.97" fill="#183FE1"/><circle cx="645.53" cy="341.75" r="37.97" fill="#888bec"/><circle cx="721.475" cy="341.755" r="33.635" fill="#888bec"/><circle cx="797.415" cy="341.755" r="28.425" fill="#183FE1"/><circle cx="873.355" cy="341.74499999999995" r="23.215" fill="#183FE1"/><circle cx="949.31" cy="341.75" r="18.01" fill="#888bec"/><circle cx="1025.25" cy="341.75" r="12.8" fill="#888bec"/><circle cx="37.975" cy="417.69500000000005" r="7.595" fill="#183FE1"/><circle cx="113.91" cy="417.69" r="12.8" fill="#888bec"/><circle cx="189.85999999999999" cy="417.69" r="18.01" fill="#183FE1"/><circle cx="265.805" cy="417.695" r="23.215" fill="#183FE1"/><circle cx="341.755" cy="417.695" r="28.425" fill="#888bec"/><circle cx="417.695" cy="417.695" r="33.635" fill="#888bec"/><circle cx="493.64" cy="417.69000000000005" r="37.97" fill="#183FE1"/><circle cx="569.58" cy="417.69000000000005" r="37.97" fill="#183FE1"/><circle cx="645.53" cy="417.69000000000005" r="37.97" fill="#183FE1"/><circle cx="721.475" cy="417.695" r="33.635" fill="#888bec"/><circle cx="797.415" cy="417.695" r="28.425" fill="#888bec"/><circle cx="873.355" cy="417.695" r="23.215" fill="#888bec"/><circle cx="949.31" cy="417.69" r="18.01" fill="#183FE1"/><circle cx="1025.25" cy="417.69" r="12.8" fill="#888bec"/><circle cx="37.975" cy="493.63500000000005" r="7.595" fill="#888bec"/><circle cx="113.92" cy="493.64" r="11.76" fill="#183FE1"/><circle cx="189.85500000000002" cy="493.635" r="15.925" fill="#888bec"/><circle cx="265.805" cy="493.645" r="20.095" fill="#888bec"/><circle cx="341.75" cy="493.64" r="24.26" fill="#183FE1"/><circle cx="417.695" cy="493.635" r="28.425" fill="#183FE1"/><circle cx="493.635" cy="493.635" r="31.895" fill="#888bec"/><circle cx="569.585" cy="493.635" r="31.895" fill="#888bec"/><circle cx="645.525" cy="493.635" r="31.895" fill="#183FE1"/><circle cx="721.4749999999999" cy="493.635" r="28.425" fill="#183FE1"/><circle cx="797.42" cy="493.64" r="24.26" fill="#888bec"/><circle cx="873.365" cy="493.645" r="20.095" fill="#888bec"/><circle cx="949.305" cy="493.635" r="15.925" fill="#888bec"/><circle cx="1025.25" cy="493.64" r="11.76" fill="#888bec"/><circle cx="37.975" cy="569.585" r="7.595" fill="#888bec"/><circle cx="113.91000000000001" cy="569.58" r="10.37" fill="#183FE1"/><circle cx="189.86" cy="569.5799999999999" r="13.15" fill="#888bec"/><circle cx="265.805" cy="569.5849999999999" r="15.925" fill="#888bec"/><circle cx="341.755" cy="569.585" r="18.705" fill="#183FE1"/><circle cx="417.69" cy="569.58" r="21.48" fill="#888bec"/><circle cx="493.635" cy="569.5849999999999" r="23.795" fill="#888bec"/><circle cx="569.5849999999999" cy="569.5849999999999" r="23.795" fill="#183FE1"/><circle cx="645.525" cy="569.5849999999999" r="23.795" fill="#888bec"/><circle cx="721.47" cy="569.58" r="21.48" fill="#183FE1"/><circle cx="797.4150000000001" cy="569.585" r="18.705" fill="#183FE1"/><circle cx="873.3549999999999" cy="569.5849999999999" r="15.925" fill="#888bec"/><circle cx="949.31" cy="569.5799999999999" r="13.15" fill="#888bec"/><circle cx="1025.25" cy="569.58" r="10.37" fill="#183FE1"/><circle cx="37.975" cy="645.525" r="7.595" fill="#888bec"/><circle cx="113.915" cy="645.525" r="8.985" fill="#888bec"/><circle cx="189.86" cy="645.53" r="10.37" fill="#183FE1"/><circle cx="265.81" cy="645.53" r="11.76" fill="#888bec"/><circle cx="341.75" cy="645.53" r="13.15" fill="#183FE1"/><circle cx="417.70000000000005" cy="645.53" r="14.54" fill="#183FE1"/><circle cx="493.635" cy="645.5250000000001" r="15.695" fill="#888bec"/><circle cx="569.585" cy="645.5250000000001" r="15.695" fill="#888bec"/><circle cx="645.5250000000001" cy="645.5250000000001" r="15.695" fill="#183FE1"/><circle cx="721.4699999999999" cy="645.53" r="14.54" fill="#183FE1"/><circle cx="797.42" cy="645.53" r="13.15" fill="#183FE1"/><circle cx="873.36" cy="645.53" r="11.76" fill="#888bec"/><circle cx="949.3" cy="645.53" r="10.37" fill="#183FE1"/><circle cx="1025.2549999999999" cy="645.525" r="8.985" fill="#183FE1"/></g></svg>